<svg width="200" height="200" viewBox="0 0 200 200" fill="none" xmlns="http://www.w3.org/2000/svg">
<g clip-path="url(#clip0_330_3350)">
<path d="M150.88 6.51721H55.986C28.8576 6.51721 6.86572 28.5091 6.86572 55.6375V150.531C6.86572 177.66 28.8576 199.651 55.986 199.651H150.88C178.008 199.651 200 177.66 200 150.531V55.6375C200 28.5091 178.008 6.51721 150.88 6.51721Z" fill="url(#paint0_linear_330_3350)"/>
<path d="M146.802 0H46.332C20.7435 0 0 20.7435 0 46.332V146.802C0 172.391 20.7435 193.134 46.332 193.134H146.802C172.391 193.134 193.134 172.391 193.134 146.802V46.332C193.134 20.7435 172.391 0 146.802 0Z" fill="#E84242"/>
<path d="M131.104 54.4056L82.8999 41.4906C82.814 41.4667 82.728 41.4476 82.6373 41.4333C69.8702 39.0651 59.2183 44.8184 55.37 48.1892C52.9684 50.2948 52.4194 52.4051 52.4385 53.933C52.4385 53.9377 52.4385 53.9473 52.4385 53.9521L52.4958 126.864C52.4958 131.476 55.6135 135.53 60.0681 136.723L102.184 148.01C102.48 148.087 102.776 148.125 103.068 148.125C104.571 148.125 105.947 147.122 106.357 145.599C106.844 143.785 105.765 141.913 103.951 141.426L61.8347 130.139C60.3498 129.743 59.3138 128.387 59.309 126.854L59.2565 60.9611L108.157 74.0623C110.239 74.621 111.69 76.5117 111.69 78.6698V93.8146C111.69 95.6957 113.213 97.2188 115.095 97.2188C116.976 97.2188 118.499 95.6957 118.499 93.8146V78.6698C118.499 73.4369 114.97 68.839 109.919 67.4878L61.8968 54.6205C60.8225 54.1765 59.9058 53.2932 62.1498 51.6651C66.3657 49.0916 73.5228 46.7091 81.2718 48.1033L129.342 60.9849C132.015 61.7011 133.882 64.1361 133.882 66.9053V136.375L118.504 143.828V111.499C118.504 106.147 114.942 102.261 110.038 102.261C105.135 102.261 101.573 106.056 101.573 110.726C101.573 112.607 103.096 114.13 104.977 114.13C106.858 114.13 108.382 112.607 108.382 110.726C108.382 109.814 109.122 109.074 110.038 109.074C111.136 109.074 111.69 109.89 111.69 111.504V148.177C111.69 149.633 112.473 150.989 113.734 151.715C114.364 152.078 115.071 152.259 115.777 152.259C116.427 152.259 117.076 152.107 117.668 151.796L136.852 142.5C139.187 141.369 140.691 138.962 140.691 136.37V66.9053C140.691 61.0566 136.747 55.9192 131.099 54.4056H131.104Z" fill="white"/>
</g>
<defs>
<linearGradient id="paint0_linear_330_3350" x1="103.43" y1="11.0339" x2="103.43" y2="300.437" gradientUnits="userSpaceOnUse">
<stop stop-color="#F0F1F1"/>
<stop offset="1" stop-color="#E5E6E7"/>
</linearGradient>
<clipPath id="clip0_330_3350">
<rect width="200" height="199.656" fill="white"/>
</clipPath>
</defs>
</svg>
